<svg width="20" height="21" viewBox="0 0 20 21" fill="none" xmlns="http://www.w3.org/2000/svg">
<rect y="0.5" width="20" height="20" rx="10" fill="currentColor"/>
<path d="M9.52689 11.9199L11.4198 10.027C11.4821 9.9649 11.5316 9.89111 11.5654 9.80987C11.5992 9.72862 11.6166 9.6415 11.6167 9.55351C11.6168 9.46551 11.5995 9.37837 11.5659 9.29705C11.5323 9.21574 11.4829 9.14186 11.4207 9.07964C11.3585 9.01741 11.2846 8.96807 11.2033 8.93444C11.122 8.9008 11.0348 8.88354 10.9468 8.88362C10.8588 8.88371 10.7717 8.90115 10.6905 8.93494C10.6092 8.96874 10.5354 9.01822 10.4733 9.08056L8.58046 10.9734C8.51811 11.0355 8.46863 11.1093 8.43483 11.1906C8.40104 11.2718 8.3836 11.3589 8.38352 11.4469C8.38343 11.5349 8.4007 11.6221 8.43433 11.7034C8.46797 11.7847 8.51731 11.8586 8.57953 11.9208C8.64175 11.983 8.71563 12.0324 8.79695 12.066C8.87826 12.0996 8.96541 12.1169 9.0534 12.1168C9.1414 12.1167 9.22851 12.0993 9.30976 12.0655C9.39101 12.0317 9.46479 11.9822 9.52689 11.9199Z" fill="white"/>
<path d="M12.2091 4.50002C11.7109 4.49844 11.2173 4.59568 10.7569 4.7861C10.2965 4.97653 9.87843 5.25637 9.52689 5.60942L8.26411 6.87221C8.20177 6.93431 8.15228 7.0081 8.11849 7.08934C8.08469 7.17059 8.06725 7.25771 8.06717 7.3457C8.06708 7.4337 8.08435 7.52084 8.11798 7.60216C8.15162 7.68347 8.20096 7.75735 8.26318 7.81957C8.3254 7.8818 8.39928 7.93114 8.4806 7.96477C8.56191 7.99841 8.64906 8.01567 8.73705 8.01559C8.82505 8.0155 8.91216 7.99806 8.99341 7.96427C9.07466 7.93047 9.14844 7.88099 9.21054 7.81865L10.4733 6.55586C10.9337 6.09605 11.5579 5.83787 12.2086 5.83809C12.8593 5.8383 13.4832 6.09689 13.9433 6.55701C14.4034 7.01713 14.662 7.64112 14.6621 8.29181C14.6623 8.9425 14.4041 9.56663 13.9443 10.027L12.6815 11.2898C12.6193 11.3519 12.57 11.4257 12.5364 11.5069C12.5028 11.5881 12.4854 11.6751 12.4854 11.763C12.4854 11.8509 12.5028 11.9379 12.5364 12.0191C12.57 12.1003 12.6193 12.1741 12.6815 12.2362C12.7436 12.2984 12.8174 12.3477 12.8986 12.3813C12.9798 12.4149 13.0668 12.4322 13.1547 12.4322C13.2426 12.4322 13.3296 12.4149 13.4108 12.3813C13.492 12.3477 13.5658 12.2984 13.6279 12.2362L14.8907 10.9734C15.4213 10.4432 15.7828 9.7675 15.9292 9.0318C16.0757 8.29609 16.0007 7.53347 15.7136 6.84043C15.4265 6.1474 14.9403 5.5551 14.3165 5.13849C13.6926 4.72188 12.9593 4.49968 12.2091 4.50002Z" fill="white"/>
<path d="M7.79132 16.5C8.28949 16.5016 8.78304 16.4045 9.2434 16.2141C9.70377 16.0238 10.1218 15.744 10.4733 15.391L11.7361 14.1282C11.7983 14.0661 11.8476 13.9923 11.8812 13.9111C11.9148 13.8299 11.9321 13.7429 11.9321 13.655C11.9321 13.5671 11.9148 13.4801 11.8812 13.3989C11.8476 13.3177 11.7983 13.2439 11.7361 13.1818C11.674 13.1196 11.6002 13.0703 11.519 13.0367C11.4378 13.0031 11.3508 12.9858 11.2629 12.9858C11.175 12.9858 11.088 13.0031 11.0068 13.0367C10.9256 13.0704 10.8518 13.1196 10.7897 13.1818L9.52689 14.4446C9.29902 14.6727 9.02844 14.8537 8.73059 14.9772C8.43275 15.1007 8.11349 15.1643 7.79105 15.1644C7.46861 15.1645 7.14932 15.1011 6.85141 14.9777C6.5535 14.8544 6.28281 14.6735 6.05482 14.4455C5.82683 14.2175 5.646 13.9468 5.52266 13.6489C5.39932 13.351 5.33589 13.0317 5.336 12.7092C5.33611 12.3868 5.39975 12.0675 5.52328 11.7697C5.64682 11.4719 5.82783 11.2013 6.05597 10.9734L7.31876 9.71065C7.3811 9.64855 7.43059 9.57477 7.46438 9.49352C7.49817 9.41227 7.51561 9.32516 7.5157 9.23716C7.51579 9.14917 7.49852 9.06202 7.46488 8.9807C7.43125 8.89939 7.38191 8.82551 7.31969 8.76329C7.25746 8.70107 7.18358 8.65173 7.10227 8.61809C7.02096 8.58446 6.93381 8.56719 6.84581 8.56727C6.75782 8.56736 6.6707 8.5848 6.58946 8.61859C6.50821 8.65239 6.43442 8.70187 6.37232 8.76422L5.10954 10.027C4.57881 10.5572 4.21732 11.2329 4.07081 11.9686C3.9243 12.7043 3.99936 13.467 4.28649 14.16C4.57362 14.8531 5.05991 15.4453 5.68381 15.8619C6.3077 16.2784 7.04116 16.5005 7.79132 16.5Z" fill="white"/>
</svg>
