<svg width="14" height="14" viewBox="0 0 14 14" fill="none" xmlns="http://www.w3.org/2000/svg">
    <path d="M8.527 3.216c0 1.224-.957 2.216-2.136 2.216-1.18 0-2.136-.992-2.136-2.216C4.255 1.992 5.211 1 6.391 1c1.18 0 2.136.992 2.136 2.216zM5.271 10.783c0 1.224-.956 2.217-2.135 2.217C1.956 13 1 12.007 1 10.783c0-1.225.956-2.217 2.136-2.217 1.18 0 2.135.992 2.135 2.217zM13 9.1c0 1.225-.956 2.217-2.136 2.217-1.18 0-2.135-.992-2.135-2.216 0-1.224.956-2.217 2.135-2.217 1.18 0 2.136.993 2.136 2.217z" fill="#fff"/>
    <path d="m6.343 3.322 4.576 5.674M6.11 3.773l-3.407 6.883m5.825-7.44c0 1.224-.957 2.216-2.136 2.216-1.18 0-2.136-.992-2.136-2.216C4.255 1.992 5.211 1 6.391 1c1.18 0 2.136.992 2.136 2.216zM5.27 10.783c0 1.224-.956 2.217-2.135 2.217C1.956 13 1 12.007 1 10.783c0-1.225.956-2.217 2.136-2.217 1.18 0 2.135.992 2.135 2.217zM13 9.1c0 1.224-.956 2.216-2.136 2.216-1.18 0-2.135-.992-2.135-2.216 0-1.224.956-2.217 2.135-2.217 1.18 0 2.136.993 2.136 2.217z" stroke="#fff" stroke-width="2"/>
</svg>
