<svg width="18" height="19" viewBox="0 0 18 19" fill="none" xmlns="http://www.w3.org/2000/svg">
    <path d="m8.29 11.63 2.839-2.84a1.004 1.004 0 1 0-1.42-1.42l-2.838 2.84a1.003 1.003 0 1 0 1.42 1.42z" fill="#fff"/>
    <path d="M12.312.5a5.648 5.648 0 0 0-4.021 1.664L6.397 4.058a1.004 1.004 0 1 0 1.42 1.42L9.71 3.584a3.68 3.68 0 0 1 6.28 2.604c0 .976-.386 1.912-1.076 2.603l-1.893 1.894a1.004 1.004 0 0 0 1.419 1.42l1.893-1.895A5.688 5.688 0 0 0 12.313.5zM5.688 18.5a5.647 5.647 0 0 0 4.022-1.663l1.893-1.895a1.002 1.002 0 0 0-1.419-1.42l-1.893 1.895a3.68 3.68 0 1 1-5.205-5.207L4.98 8.316a1.004 1.004 0 1 0-1.42-1.42L1.667 8.79a5.687 5.687 0 0 0 4.021 9.71z" fill="#fff"/>
</svg>
