<svg width="80" height="4" viewBox="1 0 80 4" fill="none" xmlns="http://www.w3.org/2000/svg">
<path d="M1 0.667969C2.31528 1.1105 6.26111 3.32314 8.89167 3.32314C11.5222 3.32314 14.1528 0.667969 16.7833 0.667969C19.4139 0.667969 22.0444 3.32314 24.675 3.32314C27.3056 3.32314 29.9361 0.667969 32.5667 0.667969C35.1972 0.667969 37.8278 3.32314 40.4583 3.32314C43.0889 3.32314 45.7194 0.667969 48.35 0.667969C50.9806 0.667969 53.6111 3.32314 56.2417 3.32314C58.8722 3.32314 61.5028 0.667969 64.1333 0.667969C66.7639 0.667969 69.3944 3.32314 72.025 3.32314C74.6556 3.32314 77.2861 0.667969 79.9167 0.667969C82.5472 0.667969 85.1778 3.32314 87.8083 3.32314C90.4389 3.32314 94.3847 1.1105 95.7 0.667969" stroke="#2191FB" stroke-linecap="round" stroke-linejoin="round"/>
</svg>
