<svg width="22" height="20" viewBox="0 0 22 20" fill="none" xmlns="http://www.w3.org/2000/svg">
<path d="M11.2766 0.0241791C6.35944 -0.316911 1.77568 2.98378 0.391806 7.83531C-0.0694867 9.45193 -0.0198988 11.0966 0.0334394 12.743C0.11053 15.1373 0.833513 17.3175 2.26323 19.2455C2.78786 19.9516 3.34416 20.1255 4.1759 19.8426C4.81846 19.6235 5.45519 19.3888 6.09275 19.1613C7.01617 18.8327 7.17035 18.4426 6.71156 17.584C5.63396 15.5626 4.8243 13.4461 4.45885 11.1691C4.34384 10.4484 3.88963 10.1911 3.19623 10.432C2.68535 10.6097 2.17864 10.7987 1.5965 11.0095C1.65942 7.59353 2.95913 4.89749 5.77272 3.10572C8.90301 1.11282 12.1816 1.07175 15.3511 2.99845C18.2735 4.77346 19.6352 7.50805 19.6986 11.0057C19.1031 10.8012 18.5785 10.6118 18.048 10.4404C17.4063 10.2334 16.975 10.4949 16.8437 11.1553C16.7529 11.612 16.6812 12.073 16.5725 12.5251C16.1303 14.3638 15.409 16.0927 14.5135 17.7525C14.1652 18.3982 14.3248 18.857 14.9807 19.0997C15.7411 19.3813 16.5029 19.6603 17.2725 19.9117C17.9551 20.1347 18.5581 19.9314 18.981 19.3456C19.2734 18.9424 19.5453 18.5245 19.7957 18.0936C21.385 15.3514 21.5279 12.3441 21.1733 9.32119C20.5762 4.21741 16.412 0.380354 11.2766 0.0241791Z" fill="currentcolor"/>
</svg>
