<svg width="60" height="60" viewBox="0 0 60 60" fill="none" xmlns="http://www.w3.org/2000/svg">
<path d="M53.0544 3.16255C55.1498 3.18188 56.8353 4.88679 56.8353 6.98602V10.0401H47.9474V3.16255H53.0544ZM44.7889 3.16255V10.0401H31.5786V3.16255H44.7889ZM28.4205 3.16255V10.0401H15.2141V3.16255H28.4205ZM12.052 3.16255V10.0401H3.16411V6.98602C3.16411 4.88679 4.85351 3.18185 6.94502 3.16255H12.052ZM23.3948 23.4047L34.8149 29.9962V30.0001L23.3948 36.5916V23.4047ZM21.8214 19.0902H21.8176H21.8098C21.2686 19.0902 20.7428 19.3763 20.449 19.8789C20.2905 20.1572 20.2248 20.4588 20.2402 20.7565H20.2364V39.325C20.2364 40.0905 20.7776 40.7284 21.5005 40.8752H21.4966C21.601 40.8946 21.7093 40.9062 21.8214 40.9062C22.0881 40.9062 22.3587 40.8405 22.61 40.6935L38.7618 31.3688C38.8082 31.3417 38.8545 31.3108 38.8971 31.2799H38.9009C39.0749 31.1484 39.2257 30.9861 39.3417 30.785C39.7785 30.0312 39.5195 29.0647 38.7618 28.6278L22.61 19.3031C22.3587 19.1562 22.0882 19.0902 21.8214 19.0902ZM56.8356 13.1985V46.7935H56.8318L3.16391 46.7973V13.2024H3.16004L56.8309 13.1985H56.8356ZM56.8356 49.9565V53.0106C56.8356 55.1098 55.1501 56.8108 53.0547 56.8341H47.9477V49.9565H56.8356ZM44.7891 49.9565V56.8379L31.5788 56.8341V49.9565L44.7891 49.9565ZM28.4207 49.9565V56.8379L15.2143 56.8341V49.9604L28.4207 49.9565ZM12.0522 49.9565V56.8379L6.94522 56.8341C4.85371 56.8109 3.16431 55.1098 3.16431 53.0106V49.9604H3.16044L12.0522 49.9565ZM6.94136 0C3.14887 0.0231953 0.0715283 3.01934 0.00195312 6.80025V53.1959C0.0715401 56.9768 3.14887 59.973 6.94136 59.9961L53.0628 60C56.8515 59.9729 59.9288 56.9768 59.9984 53.1959V6.80026C59.9288 3.01935 56.8515 0.0231644 53.0628 5.66305e-06L6.94136 0Z" fill="currentcolor"/>
</svg>
