<svg width="20" height="20" viewBox="0 0 20 20" fill="none" xmlns="http://www.w3.org/2000/svg">
<path d="M20 0H2.99526V2.99526H0V20H17.0047V17.0047H20V0ZM18.5714 15.5762H17.0047V2.99526H4.42383V1.42857H18.5714V15.5762ZM15.5762 18.5714H5.94587C6.29813 13.4222 10.4269 9.29339 15.5762 8.94113V18.5714ZM1.42857 4.42383H15.5762V7.52433C9.64151 7.8823 4.88704 12.6368 4.52907 18.5714H1.42857V4.42383Z" fill="currentcolor"/>
<path d="M4.69378 9.98675C5.96052 9.98675 6.99149 8.95578 6.99149 7.68903C6.99149 6.42229 5.96052 5.39202 4.69378 5.39202C3.42704 5.39202 2.39607 6.42229 2.39607 7.68903C2.39607 8.95578 3.42704 9.98675 4.69378 9.98675ZM4.69378 6.82059C5.17299 6.82059 5.56292 7.21052 5.56292 7.68903C5.56292 8.16825 5.17299 8.55818 4.69378 8.55818C4.21456 8.55818 3.82464 8.16825 3.82464 7.68903C3.82464 7.21052 4.21456 6.82059 4.69378 6.82059Z" fill="currentcolor"/>
</svg>
