<svg width="20" height="13" viewBox="0 0 20 13" fill="none" xmlns="http://www.w3.org/2000/svg">
    <path d="M1 6.5h18" stroke="#2191FB" stroke-width="2" stroke-linecap="round"/>
    <path d="M9.945 12.5a4.937 4.937 0 0 1-3.521-1.52A5.152 5.152 0 0 1 6.49 3.8L9.585.7a.627.627 0 0 1 .473-.2.667.667 0 0 1 .474.207l3.041 3.146a5.152 5.152 0 0 1-.06 7.18 4.888 4.888 0 0 1-3.568 1.466z" fill="#2191FB"/>
    <path d="M13.048 7.4c0 1.657-1.335 3-2.98 3a2.99 2.99 0 0 1-2.981-3c0-1.657 1.334-3 2.98-3a2.99 2.99 0 0 1 2.981 3z" fill="#fff"/>
    <path d="M8.875 6.2h2.385v2.4H8.875V6.2z" fill="#2191FB"/>
</svg>
