<svg width="21" height="11" viewBox="0 0 21 11" fill="none" xmlns="http://www.w3.org/2000/svg">
<path d="M1.67285 6H19.6729" stroke="#F23A00" stroke-width="2" stroke-linecap="round"/>
<rect x="5.82812" y="0.5" width="10" height="10" rx="5" fill="#F23A00"/>
<path d="M11.4642 3.92343C11.4642 4.43343 11.0658 4.84687 10.5744 4.84687C10.0829 4.84687 9.68452 4.43343 9.68452 3.92343C9.68452 3.41344 10.0829 3 10.5744 3C11.0658 3 11.4642 3.41344 11.4642 3.92343Z" fill="white"/>
<path d="M10.1078 7.0762C10.1078 7.5864 9.70941 8 9.21796 8C8.72652 8 8.32812 7.5864 8.32812 7.0762C8.32812 6.566 8.72652 6.15241 9.21796 6.15241C9.70941 6.15241 10.1078 6.566 10.1078 7.0762Z" fill="white"/>
<path d="M13.3281 6.37527C13.3281 6.88527 12.9297 7.29871 12.4383 7.29871C11.9468 7.29871 11.5484 6.88527 11.5484 6.37527C11.5484 5.86528 11.9468 5.45184 12.4383 5.45184C12.9297 5.45184 13.3281 5.86528 13.3281 6.37527Z" fill="white"/>
<path d="M10.5544 3.96743L11.5078 5.14957L12.4613 6.33172M10.457 4.15558L9.03727 7.02337M11.4642 3.92343C11.4642 4.43343 11.0658 4.84687 10.5744 4.84687C10.0829 4.84687 9.68452 4.43343 9.68452 3.92343C9.68452 3.41344 10.0829 3 10.5744 3C11.0658 3 11.4642 3.41344 11.4642 3.92343ZM10.1078 7.0762C10.1078 7.5864 9.70941 8 9.21796 8C8.72652 8 8.32812 7.5864 8.32812 7.0762C8.32812 6.566 8.72652 6.15241 9.21796 6.15241C9.70941 6.15241 10.1078 6.566 10.1078 7.0762ZM13.3281 6.37527C13.3281 6.88527 12.9297 7.29871 12.4383 7.29871C11.9468 7.29871 11.5484 6.88527 11.5484 6.37527C11.5484 5.86528 11.9468 5.45184 12.4383 5.45184C12.9297 5.45184 13.3281 5.86528 13.3281 6.37527Z" stroke="white" stroke-width="0.5"/>
</svg>
