<svg width="22" height="18" viewBox="0 0 22 18" fill="none" xmlns="http://www.w3.org/2000/svg">
<path d="M1 10H21" stroke="#2191FB" stroke-width="2" stroke-linecap="round"/>
<path d="M11.4285 17.9991C10.5722 17.9907 9.72597 17.7846 8.93977 17.3931C8.15358 17.0015 7.4433 16.4324 6.85082 15.7193C5.64791 14.2638 4.9841 12.325 5.00029 10.3143C5.01648 8.30364 5.71138 6.37938 6.93752 4.94993L10.9603 0.300223C11.0387 0.202888 11.1341 0.125826 11.2402 0.0741181C11.3463 0.0224103 11.4607 -0.00276889 11.5759 0.000241341C11.6912 0.00209052 11.8051 0.0304593 11.9108 0.0836862C12.0165 0.136913 12.1119 0.213929 12.1915 0.310222L16.1449 5.02993C17.349 6.48409 18.0143 8.42217 17.9998 10.4328C17.9852 12.4435 17.2919 14.3685 16.0669 15.7993C15.4636 16.5097 14.7412 17.071 13.9438 17.4492C13.1464 17.8274 12.2906 18.0145 11.4285 17.9991Z" fill="#2191FB"/>
<path d="M15.4625 10.35C15.4625 12.8353 13.7276 14.85 11.5875 14.85C9.4474 14.85 7.7125 12.8353 7.7125 10.35C7.7125 7.86472 9.4474 5.85 11.5875 5.85C13.7276 5.85 15.4625 7.86472 15.4625 10.35Z" fill="white"/>
<path d="M9.33333 8.55L13.6667 8.57647V12.7059L9.33333 12.6794V8.55Z" fill="#2191FB"/>
</svg>
