<svg width="21" height="13" viewBox="0 0 21 13" fill="none" xmlns="http://www.w3.org/2000/svg">
<path d="M1.17236 6.5H19.1724" stroke="#2191FB" stroke-width="2" stroke-linecap="round"/>
<path d="M10.1174 12.4994C9.45865 12.4938 8.80773 12.3564 8.20296 12.0954C7.59819 11.8344 7.05183 11.4549 6.59607 10.9795C5.67075 10.0092 5.16013 8.71666 5.17259 7.37621C5.18504 6.03576 5.71958 4.75292 6.66276 3.79996L9.75724 0.700149C9.81754 0.635259 9.89093 0.583884 9.97254 0.549412C10.0542 0.51494 10.1422 0.498154 10.2307 0.500161C10.3195 0.501394 10.407 0.520306 10.4883 0.555791C10.5696 0.591275 10.643 0.642619 10.7043 0.706815L13.7454 3.85329C14.6716 4.82273 15.1834 6.11478 15.1722 7.45523C15.161 8.79568 14.6276 10.079 13.6854 11.0328C13.2213 11.5064 12.6656 11.8807 12.0522 12.1328C11.4388 12.385 10.7805 12.5097 10.1174 12.4994Z" fill="#2191FB"/>
<path d="M13.2204 7.4C13.2204 9.05685 11.8859 10.4 10.2397 10.4C8.59344 10.4 7.2589 9.05685 7.2589 7.4C7.2589 5.74315 8.59344 4.4 10.2397 4.4C11.8859 4.4 13.2204 5.74315 13.2204 7.4Z" fill="white"/>
<path d="M10.0731 5.5892V4.86364H10.5681V5.5892H10.0731ZM10.0731 9.95455V9.19301H10.5681V9.95455H10.0731ZM10.2766 9.45085C10.0933 9.45085 9.932 9.43886 9.79268 9.41487C9.65336 9.39488 9.52687 9.36091 9.41322 9.31293C9.29956 9.26496 9.18224 9.207 9.06125 9.13904V8.47944C9.20424 8.60337 9.37655 8.7053 9.5782 8.78525C9.78351 8.86521 10.0035 8.90518 10.2381 8.90518C10.4654 8.90518 10.6341 8.85521 10.7441 8.75527C10.8577 8.65134 10.9146 8.50942 10.9146 8.32953C10.9146 8.18962 10.8724 8.07768 10.7881 7.99373C10.7074 7.90579 10.5993 7.83183 10.4636 7.77187C10.328 7.71191 10.1831 7.65194 10.0292 7.59198C9.91183 7.54401 9.79634 7.49404 9.68269 7.44207C9.56903 7.3861 9.46638 7.31815 9.37472 7.23819C9.28306 7.15425 9.20974 7.04831 9.15474 6.92039C9.09975 6.79246 9.07225 6.63456 9.07225 6.44668C9.07225 6.31476 9.09608 6.18084 9.14374 6.04492C9.19141 5.909 9.2629 5.78707 9.35822 5.67914C9.45721 5.56721 9.58553 5.47926 9.74318 5.4153C9.9045 5.34734 10.097 5.31336 10.3206 5.31336C10.4673 5.31336 10.5938 5.32336 10.7001 5.34334C10.8101 5.36333 10.9127 5.39531 11.0081 5.43929C11.107 5.47926 11.2134 5.52923 11.327 5.5892V6.2368C11.2354 6.17284 11.1419 6.11288 11.0465 6.05691C10.9549 6.00095 10.8541 5.95497 10.7441 5.919C10.6341 5.88302 10.5113 5.86303 10.3756 5.85903C10.2216 5.85503 10.0951 5.87502 9.99616 5.919C9.89717 5.96297 9.82201 6.02493 9.77068 6.10488C9.71935 6.18483 9.69369 6.27678 9.69369 6.38071C9.69369 6.52063 9.72485 6.63256 9.78718 6.71651C9.85317 6.79646 9.94483 6.86442 10.0621 6.92039C10.1795 6.97236 10.3151 7.02432 10.4691 7.07629C10.6048 7.12426 10.7367 7.17823 10.8651 7.23819C10.9934 7.29816 11.107 7.37211 11.206 7.46006C11.305 7.54401 11.3838 7.64994 11.4425 7.77787C11.5048 7.90579 11.536 8.06369 11.536 8.25158C11.536 8.45945 11.492 8.65533 11.404 8.83922C11.3197 9.01911 11.184 9.16702 10.9971 9.28295C10.8137 9.39488 10.5736 9.45085 10.2766 9.45085Z" fill="#2191FB"/>
<path fill-rule="evenodd" clip-rule="evenodd" d="M11.1503 6.11983C11.1159 6.09832 11.0814 6.07735 11.0465 6.05691C10.9549 6.00095 10.8541 5.95497 10.7441 5.919C10.6341 5.88302 10.5113 5.86303 10.3756 5.85903C10.2216 5.85503 10.0951 5.87502 9.99616 5.919C9.89717 5.96297 9.82201 6.02493 9.77068 6.10488C9.71935 6.18483 9.69369 6.27678 9.69369 6.38071C9.69369 6.52063 9.72485 6.63256 9.78718 6.71651C9.85317 6.79646 9.94483 6.86442 10.0621 6.92039C10.1795 6.97236 10.3151 7.02432 10.4691 7.07629C10.6048 7.12426 10.7367 7.17823 10.8651 7.23819C10.9934 7.29816 11.107 7.37211 11.206 7.46006C11.305 7.54401 11.3838 7.64994 11.4425 7.77787C11.5048 7.90579 11.536 8.06369 11.536 8.25158C11.536 8.45945 11.492 8.65533 11.404 8.83922C11.3197 9.01911 11.184 9.16702 10.9971 9.28295C10.9224 9.32853 10.8384 9.36483 10.7449 9.39184C10.6893 9.40791 10.6304 9.4207 10.5681 9.4302V9.95455H10.0731V9.44543C10.0112 9.44196 9.95225 9.43682 9.89638 9.43002C9.86056 9.42566 9.82599 9.42061 9.79268 9.41487C9.65336 9.39488 9.52687 9.36091 9.41322 9.31293C9.29956 9.26496 9.18224 9.207 9.06125 9.13904V8.47944C9.11589 8.5268 9.17481 8.57094 9.23802 8.61188C9.34022 8.67806 9.45361 8.73586 9.5782 8.78525C9.78351 8.86521 10.0035 8.90518 10.2381 8.90518C10.4654 8.90518 10.6341 8.85521 10.7441 8.75527C10.8577 8.65134 10.9146 8.50942 10.9146 8.32953C10.9146 8.18962 10.8724 8.07768 10.7881 7.99373C10.7074 7.90579 10.5993 7.83183 10.4636 7.77187C10.328 7.71191 10.1831 7.65194 10.0292 7.59198C9.91183 7.54401 9.79634 7.49404 9.68269 7.44207C9.56903 7.3861 9.46638 7.31815 9.37472 7.23819C9.28306 7.15425 9.20974 7.04831 9.15474 6.92039C9.09975 6.79246 9.07225 6.63456 9.07225 6.44668C9.07225 6.31476 9.09608 6.18084 9.14374 6.04492C9.19141 5.909 9.2629 5.78707 9.35822 5.67914C9.45721 5.56721 9.58553 5.47926 9.74318 5.4153C9.79146 5.39496 9.84252 5.37767 9.89638 5.36342C9.9523 5.34862 10.0112 5.33711 10.0731 5.32887V4.86364H10.5681V5.32468C10.6151 5.32942 10.6591 5.33564 10.7001 5.34334C10.7151 5.34608 10.7301 5.34905 10.7449 5.35223C10.8381 5.37232 10.9258 5.40134 11.0081 5.43929C11.107 5.47926 11.2134 5.52923 11.327 5.5892V6.2368C11.2688 6.1962 11.2099 6.15721 11.1503 6.11983ZM11.0765 5.2716C11.1808 5.31389 11.2912 5.36598 11.4077 5.42742L11.5038 5.47811V6.57987L11.2278 6.38726C11.1399 6.32591 11.0502 6.26843 10.9589 6.21482L10.9563 6.21328C10.8771 6.16492 10.7887 6.12439 10.6905 6.09226C10.5988 6.06226 10.4927 6.0444 10.3709 6.04078C10.2325 6.03722 10.1338 6.05588 10.0662 6.08591C9.99373 6.11812 9.94773 6.15906 9.91819 6.20507C9.88757 6.25277 9.87046 6.30925 9.87046 6.38071C9.87046 6.49065 9.89418 6.55911 9.92511 6.60264C9.97038 6.65616 10.0377 6.70801 10.1344 6.75441C10.2453 6.80343 10.375 6.85318 10.5242 6.90354L10.5266 6.90434C10.6675 6.95415 10.8047 7.01026 10.9382 7.07266C11.0801 7.13895 11.2077 7.22158 11.3201 7.32112C11.4393 7.42267 11.5329 7.54948 11.6015 7.69838C11.6787 7.8578 11.7128 8.04478 11.7128 8.25158C11.7128 8.48663 11.6628 8.70981 11.5629 8.91885C11.4619 9.13413 11.3007 9.30697 11.0883 9.43867L11.0873 9.4393C10.9848 9.5019 10.8702 9.54822 10.7449 9.57981V10.1364H9.89638V9.61302C9.85135 9.60791 9.80783 9.60178 9.76586 9.5946C9.61487 9.57276 9.47459 9.53537 9.34611 9.48114C9.22576 9.43034 9.10255 9.3694 8.97653 9.29861L8.88448 9.24691V8.08848L9.17515 8.3404C9.30089 8.44937 9.45537 8.54164 9.64128 8.61541C9.82511 8.68692 10.0236 8.72336 10.2381 8.72336C10.4448 8.72336 10.5628 8.67725 10.6268 8.61919C10.6968 8.55511 10.7378 8.46597 10.7378 8.32953C10.7378 8.23034 10.7095 8.16857 10.6651 8.12438L10.6623 8.12151L10.6595 8.1185C10.5991 8.05263 10.5128 7.9915 10.3938 7.93892C10.2608 7.88012 10.1184 7.82114 9.96656 7.76202L9.96385 7.76096C9.84437 7.71211 9.72672 7.66118 9.61088 7.60821L9.60633 7.60613C9.47967 7.54376 9.36415 7.46737 9.26039 7.37686L9.25713 7.37402C9.14467 7.27101 9.05717 7.14301 8.99307 6.99392C8.92533 6.83634 8.89548 6.65166 8.89548 6.44668C8.89548 6.29181 8.92352 6.13705 8.97746 5.98323C9.03304 5.82472 9.11665 5.68226 9.22738 5.55689C9.34691 5.42173 9.49874 5.31919 9.67725 5.2466C9.74647 5.21751 9.8196 5.19422 9.89638 5.1764V4.68182H10.7449V5.16691C10.8616 5.1892 10.9723 5.22393 11.0765 5.2716Z" fill="#2191FB"/>
</svg>
