<?xml version="1.0" standalone="no"?>
<!DOCTYPE svg PUBLIC "-//W3C//DTD SVG 1.1//EN" "http://www.w3.org/Graphics/SVG/1.1/DTD/svg11.dtd"><svg t="1720627433223"
    class="icon" viewBox="0 0 1024 1024" version="1.1" xmlns="http://www.w3.org/2000/svg" p-id="5438"
    xmlns:xlink="http://www.w3.org/1999/xlink" width="100" height="100">
    <path
        d="M75.8 537.1c22.5 12.3 57.3 33.8 95.2 33.8 36.9 0 63.5-15.4 98.3-33.8 13.3-8.2 35.8-24.6 71.7-24.6s59.4 16.4 72.7 24.6c34.8 18.4 61.4 33.8 99.3 33.8s71.7-20.5 95.2-33.8c28.7-15.4 51.2-24.6 74.8-24.6 23.6 0 46.1 9.2 74.8 24.6 23.5 12.3 57.3 33.8 95.2 33.8 37.9 0 64.5-15.4 98.3-33.8 13.3-8.2 36.9-24.6 72.7-24.6v-59.4c-44 0-69.6 20.5-94.2 33.8-28.7 15.4-52.2 24.6-76.8 24.6-24.6 0-60.4-16.4-74.8-24.6-25.6-15.4-58.4-33.8-95.2-33.8s-69.6 18.4-95.2 33.8c-14.3 8.2-50.2 24.6-74.8 24.6-24.6 0-48.1-9.2-76.8-24.6-25.6-13.3-50.2-33.8-95.2-33.8-44 0-69.6 20.5-93.2 33.8-28.7 15.4-52.2 24.6-76.8 24.6-25.6 0-60.4-16.4-74.7-24.6-26.7-15.4-59.4-33.8-96.3-33.8v59.4c24.6 0 47.1 9.2 75.8 24.6z"
        fill="rgba(196,33,251,0.5)" p-id="5439"></path>
</svg>